<svg xmlns="http://www.w3.org/2000/svg" xmlns:xlink="http://www.w3.org/1999/xlink" width="500" zoomAndPan="magnify" viewBox="0 0 375 374.999991" height="500" preserveAspectRatio="xMidYMid meet" version="1.0"><defs><filter x="0%" y="0%" width="100%" height="100%" id="id1"><feColorMatrix values="0 0 0 0 1 0 0 0 0 1 0 0 0 0 1 0 0 0 1 0" color-interpolation-filters="sRGB"/></filter><mask id="id2"><g filter="url(#id1)"><rect x="-37.5" width="450" fill="#000000" y="-37.499999" height="449.999989" fill-opacity="0.098"/></g></mask><clipPath id="id3"><path d="M 1 1 L 200.800781 1 L 200.800781 86 L 1 86 Z M 1 1 " clip-rule="nonzero"/></clipPath><clipPath id="id4"><rect x="0" width="201" y="0" height="86"/></clipPath><mask id="id5"><g filter="url(#id1)"><rect x="-37.5" width="450" fill="#000000" y="-37.499999" height="449.999989" fill-opacity="0.098"/></g></mask><clipPath id="id6"><path d="M 1 1 L 200.800781 1 L 200.800781 52 L 1 52 Z M 1 1 " clip-rule="nonzero"/></clipPath><clipPath id="id7"><rect x="0" width="201" y="0" height="52"/></clipPath><mask id="id8"><g filter="url(#id1)"><rect x="-37.5" width="450" fill="#000000" y="-37.499999" height="449.999989" fill-opacity="0.098"/></g></mask><clipPath id="id9"><path d="M 0.398438 1 L 181 1 L 181 149 L 0.398438 149 Z M 0.398438 1 " clip-rule="nonzero"/></clipPath><clipPath id="id10"><rect x="0" width="183" y="0" height="149"/></clipPath><mask id="id11"><g filter="url(#id1)"><rect x="-37.5" width="450" fill="#000000" y="-37.499999" height="449.999989" fill-opacity="0.098"/></g></mask><clipPath id="id12"><rect x="0" width="181" y="0" height="137"/></clipPath></defs><rect x="-37.5" width="450" fill="#ffffff" y="-37.499999" height="449.999989" fill-opacity="1"/><rect x="-37.5" width="450" fill="#ffffff" y="-37.499999" height="449.999989" fill-opacity="1"/><rect x="-37.5" width="450" fill="#fafafa" y="-37.499999" height="449.999989" fill-opacity="1"/><path fill="#f5f5f5" d="M 322.578125 221.425781 C 322.578125 222.8125 322.507812 224.199219 322.371094 225.578125 C 322.238281 226.960938 322.035156 228.332031 321.765625 229.695312 C 321.492188 231.058594 321.15625 232.402344 320.757812 233.730469 C 320.355469 235.058594 319.886719 236.367188 319.359375 237.648438 C 318.828125 238.929688 318.238281 240.183594 317.585938 241.410156 C 316.933594 242.632812 316.222656 243.824219 315.453125 244.980469 C 314.683594 246.132812 313.859375 247.246094 312.980469 248.320312 C 312.101562 249.394531 311.175781 250.421875 310.195312 251.402344 C 309.21875 252.386719 308.191406 253.316406 307.121094 254.199219 C 306.050781 255.078125 304.941406 255.90625 303.789062 256.675781 C 302.640625 257.449219 301.453125 258.160156 300.230469 258.816406 C 299.011719 259.46875 297.761719 260.0625 296.480469 260.59375 C 295.203125 261.125 293.902344 261.59375 292.578125 261.996094 C 291.25 262.398438 289.910156 262.734375 288.550781 263.007812 C 287.195312 263.277344 285.828125 263.480469 284.449219 263.617188 C 283.070312 263.753906 281.691406 263.820312 280.304688 263.820312 L 166.257812 263.820312 C 164.875 263.820312 163.496094 263.753906 162.117188 263.617188 C 160.738281 263.480469 159.371094 263.277344 158.011719 263.007812 C 156.65625 262.734375 155.316406 262.398438 153.988281 261.996094 C 152.664062 261.59375 151.363281 261.125 150.085938 260.59375 C 148.804688 260.0625 147.554688 259.46875 146.335938 258.816406 C 145.113281 258.160156 143.929688 257.449219 142.777344 256.675781 C 141.625 255.90625 140.515625 255.078125 139.445312 254.199219 C 138.375 253.316406 137.351562 252.386719 136.371094 251.402344 C 135.390625 250.421875 134.464844 249.394531 133.585938 248.320312 C 132.707031 247.246094 131.882812 246.132812 131.113281 244.980469 C 130.34375 243.824219 129.636719 242.636719 128.980469 241.410156 C 128.328125 240.1875 127.738281 238.933594 127.207031 237.648438 C 126.679688 236.367188 126.214844 235.058594 125.8125 233.730469 C 125.410156 232.402344 125.074219 231.058594 124.804688 229.695312 C 124.535156 228.332031 124.332031 226.960938 124.195312 225.578125 C 124.058594 224.199219 123.992188 222.8125 123.992188 221.425781 C 123.992188 220.035156 124.058594 218.652344 124.195312 217.269531 C 124.328125 215.886719 124.53125 214.515625 124.800781 213.152344 C 125.074219 211.792969 125.410156 210.445312 125.808594 209.117188 C 126.210938 207.789062 126.675781 206.484375 127.207031 205.199219 C 127.738281 203.917969 128.328125 202.664062 128.980469 201.4375 C 129.632812 200.214844 130.34375 199.023438 131.113281 197.871094 C 131.882812 196.714844 132.707031 195.601562 133.582031 194.527344 C 134.460938 193.453125 135.390625 192.425781 136.371094 191.445312 C 137.347656 190.464844 138.371094 189.53125 139.441406 188.652344 C 140.511719 187.769531 141.625 186.945312 142.773438 186.171875 C 143.925781 185.402344 145.113281 184.6875 146.332031 184.035156 C 147.554688 183.378906 148.804688 182.785156 150.082031 182.253906 C 151.363281 181.722656 152.664062 181.253906 153.988281 180.851562 C 155.3125 180.449219 156.65625 180.113281 158.011719 179.839844 C 159.371094 179.570312 160.738281 179.367188 162.117188 179.230469 C 163.496094 179.09375 164.875 179.027344 166.257812 179.027344 L 280.304688 179.027344 C 281.691406 179.027344 283.070312 179.09375 284.449219 179.230469 C 285.828125 179.367188 287.195312 179.570312 288.550781 179.839844 C 289.910156 180.113281 291.25 180.449219 292.578125 180.851562 C 293.902344 181.253906 295.203125 181.722656 296.480469 182.253906 C 297.761719 182.785156 299.011719 183.378906 300.230469 184.03125 C 301.453125 184.6875 302.640625 185.398438 303.789062 186.171875 C 304.941406 186.941406 306.050781 187.769531 307.121094 188.648438 C 308.191406 189.53125 309.214844 190.460938 310.195312 191.445312 C 311.175781 192.425781 312.101562 193.453125 312.980469 194.527344 C 313.859375 195.601562 314.683594 196.714844 315.453125 197.867188 C 316.222656 199.023438 316.933594 200.210938 317.585938 201.4375 C 318.238281 202.660156 318.828125 203.914062 319.359375 205.199219 C 319.886719 206.480469 320.355469 207.789062 320.757812 209.117188 C 321.15625 210.445312 321.492188 211.789062 321.765625 213.152344 C 322.035156 214.515625 322.238281 215.886719 322.371094 217.269531 C 322.507812 218.648438 322.578125 220.035156 322.578125 221.425781 Z M 322.578125 221.425781 " fill-opacity="1" fill-rule="nonzero"/><g mask="url(#id2)"><g transform="matrix(1, 0, 0, 1, 122, 178)"><g clip-path="url(#id4)"><g clip-path="url(#id3)"><path fill="#737373" d="M 200.578125 43.425781 C 200.578125 44.8125 200.507812 46.199219 200.371094 47.578125 C 200.238281 48.960938 200.035156 50.332031 199.765625 51.695312 C 199.492188 53.058594 199.15625 54.402344 198.757812 55.730469 C 198.355469 57.058594 197.886719 58.367188 197.359375 59.648438 C 196.828125 60.929688 196.238281 62.183594 195.585938 63.410156 C 194.933594 64.632812 194.222656 65.824219 193.453125 66.980469 C 192.683594 68.132812 191.859375 69.246094 190.980469 70.320312 C 190.101562 71.394531 189.175781 72.421875 188.195312 73.402344 C 187.21875 74.386719 186.191406 75.316406 185.121094 76.199219 C 184.050781 77.078125 182.941406 77.90625 181.789062 78.675781 C 180.640625 79.449219 179.453125 80.160156 178.230469 80.816406 C 177.011719 81.46875 175.761719 82.0625 174.480469 82.59375 C 173.203125 83.125 171.902344 83.59375 170.578125 83.996094 C 169.25 84.398438 167.910156 84.734375 166.550781 85.007812 C 165.195312 85.277344 163.828125 85.480469 162.449219 85.617188 C 161.070312 85.753906 159.691406 85.820312 158.304688 85.820312 L 44.257812 85.820312 C 42.875 85.820312 41.496094 85.753906 40.117188 85.617188 C 38.738281 85.480469 37.371094 85.277344 36.011719 85.007812 C 34.65625 84.734375 33.316406 84.398438 31.988281 83.996094 C 30.664062 83.59375 29.363281 83.125 28.085938 82.59375 C 26.804688 82.0625 25.554688 81.46875 24.335938 80.816406 C 23.113281 80.160156 21.929688 79.449219 20.777344 78.675781 C 19.625 77.90625 18.515625 77.078125 17.445312 76.199219 C 16.375 75.316406 15.351562 74.386719 14.371094 73.402344 C 13.394531 72.421875 12.464844 71.394531 11.585938 70.320312 C 10.707031 69.246094 9.882812 68.132812 9.113281 66.980469 C 8.34375 65.824219 7.636719 64.636719 6.980469 63.410156 C 6.328125 62.1875 5.738281 60.933594 5.207031 59.648438 C 4.679688 58.367188 4.214844 57.058594 3.8125 55.730469 C 3.410156 54.402344 3.074219 53.058594 2.804688 51.695312 C 2.535156 50.332031 2.332031 48.960938 2.195312 47.578125 C 2.058594 46.199219 1.992188 44.8125 1.992188 43.425781 C 1.992188 42.035156 2.058594 40.652344 2.195312 39.269531 C 2.328125 37.886719 2.53125 36.515625 2.800781 35.152344 C 3.074219 33.792969 3.410156 32.445312 3.808594 31.117188 C 4.210938 29.789062 4.675781 28.484375 5.207031 27.199219 C 5.738281 25.917969 6.328125 24.664062 6.980469 23.4375 C 7.632812 22.214844 8.34375 21.023438 9.113281 19.871094 C 9.882812 18.714844 10.707031 17.601562 11.582031 16.527344 C 12.460938 15.453125 13.390625 14.425781 14.371094 13.445312 C 15.347656 12.464844 16.371094 11.53125 17.441406 10.652344 C 18.511719 9.769531 19.625 8.945312 20.773438 8.171875 C 21.925781 7.402344 23.113281 6.6875 24.332031 6.035156 C 25.554688 5.378906 26.804688 4.785156 28.082031 4.253906 C 29.363281 3.722656 30.664062 3.253906 31.988281 2.851562 C 33.3125 2.449219 34.65625 2.113281 36.011719 1.839844 C 37.371094 1.570312 38.738281 1.367188 40.117188 1.230469 C 41.496094 1.09375 42.875 1.027344 44.257812 1.027344 L 158.304688 1.027344 C 159.691406 1.027344 161.070312 1.09375 162.449219 1.230469 C 163.828125 1.367188 165.195312 1.570312 166.550781 1.839844 C 167.910156 2.113281 169.25 2.449219 170.578125 2.851562 C 171.902344 3.253906 173.203125 3.722656 174.480469 4.253906 C 175.761719 4.785156 177.011719 5.378906 178.230469 6.03125 C 179.453125 6.6875 180.640625 7.398438 181.789062 8.171875 C 182.941406 8.941406 184.050781 9.769531 185.121094 10.648438 C 186.191406 11.53125 187.214844 12.460938 188.195312 13.445312 C 189.175781 14.425781 190.101562 15.453125 190.980469 16.527344 C 191.859375 17.601562 192.683594 18.714844 193.453125 19.867188 C 194.222656 21.023438 194.933594 22.210938 195.585938 23.4375 C 196.238281 24.660156 196.828125 25.914062 197.359375 27.199219 C 197.886719 28.480469 198.355469 29.789062 198.757812 31.117188 C 199.15625 32.445312 199.492188 33.789062 199.765625 35.152344 C 200.035156 36.515625 200.238281 37.886719 200.371094 39.269531 C 200.507812 40.648438 200.578125 42.035156 200.578125 43.425781 Z M 200.578125 43.425781 " fill-opacity="1" fill-rule="nonzero"/></g></g></g></g><path fill="#ff1616" d="M 223.285156 179.027344 L 280.304688 179.027344 C 281.691406 179.027344 283.070312 179.09375 284.449219 179.230469 C 285.828125 179.367188 287.195312 179.570312 288.550781 179.839844 C 289.910156 180.113281 291.25 180.449219 292.578125 180.851562 C 293.902344 181.253906 295.203125 181.722656 296.480469 182.253906 C 297.761719 182.785156 299.011719 183.378906 300.230469 184.03125 C 301.453125 184.6875 302.640625 185.398438 303.789062 186.171875 C 304.941406 186.941406 306.050781 187.769531 307.121094 188.648438 C 308.191406 189.53125 309.214844 190.460938 310.195312 191.445312 C 311.175781 192.425781 312.101562 193.453125 312.980469 194.527344 C 313.859375 195.601562 314.683594 196.714844 315.453125 197.867188 C 316.222656 199.023438 316.933594 200.210938 317.585938 201.4375 C 318.238281 202.660156 318.828125 203.914062 319.359375 205.199219 C 319.886719 206.480469 320.355469 207.789062 320.757812 209.117188 C 321.15625 210.445312 321.492188 211.789062 321.765625 213.152344 C 322.035156 214.515625 322.238281 215.886719 322.371094 217.269531 C 322.507812 218.648438 322.578125 220.035156 322.578125 221.425781 C 322.578125 222.8125 322.507812 224.199219 322.371094 225.578125 C 322.238281 226.960938 322.035156 228.332031 321.765625 229.695312 C 321.492188 231.058594 321.15625 232.402344 320.757812 233.730469 C 320.355469 235.058594 319.886719 236.367188 319.359375 237.648438 C 318.828125 238.929688 318.238281 240.183594 317.585938 241.410156 C 316.933594 242.632812 316.222656 243.824219 315.453125 244.980469 C 314.683594 246.132812 313.859375 247.246094 312.980469 248.320312 C 312.101562 249.394531 311.175781 250.421875 310.195312 251.402344 C 309.21875 252.386719 308.191406 253.316406 307.121094 254.199219 C 306.050781 255.078125 304.941406 255.90625 303.789062 256.675781 C 302.640625 257.449219 301.453125 258.160156 300.230469 258.816406 C 299.011719 259.46875 297.761719 260.0625 296.480469 260.59375 C 295.203125 261.125 293.902344 261.59375 292.578125 261.996094 C 291.25 262.398438 289.910156 262.734375 288.550781 263.007812 C 287.195312 263.277344 285.828125 263.480469 284.449219 263.617188 C 283.070312 263.753906 281.691406 263.820312 280.304688 263.820312 L 223.285156 263.820312 Z M 223.285156 179.027344 " fill-opacity="1" fill-rule="nonzero"/><g mask="url(#id5)"><g transform="matrix(1, 0, 0, 1, 122, 212)"><g clip-path="url(#id7)"><g clip-path="url(#id6)"><path fill="#737373" d="M 158.304688 34.988281 L 44.257812 34.988281 C 43.050781 34.988281 41.847656 34.9375 40.640625 34.835938 C 39.4375 34.730469 38.242188 34.574219 37.050781 34.371094 C 35.859375 34.164062 34.679688 33.90625 33.511719 33.597656 C 32.34375 33.289062 31.191406 32.929688 30.054688 32.523438 C 28.914062 32.117188 27.796875 31.660156 26.699219 31.160156 C 25.597656 30.65625 24.523438 30.105469 23.472656 29.507812 C 22.421875 28.914062 21.394531 28.273438 20.398438 27.589844 C 19.402344 26.90625 18.433594 26.179688 17.5 25.414062 C 16.5625 24.644531 15.664062 23.839844 14.796875 22.996094 C 13.929688 22.152344 13.101562 21.269531 12.3125 20.355469 C 11.519531 19.441406 10.769531 18.492188 10.058594 17.511719 C 9.347656 16.53125 8.683594 15.523438 8.058594 14.484375 C 7.433594 13.445312 6.855469 12.382812 6.324219 11.296875 C 5.789062 10.210938 5.304688 9.101562 4.867188 7.972656 C 4.429688 6.84375 4.039062 5.695312 3.699219 4.535156 C 3.359375 3.371094 3.070312 2.195312 2.828125 1.007812 C 2.675781 1.773438 2.542969 2.546875 2.429688 3.320312 C 2.316406 4.09375 2.226562 4.871094 2.15625 5.648438 C 2.089844 6.425781 2.039062 7.207031 2.015625 7.988281 C 1.988281 8.769531 1.984375 9.554688 2 10.335938 C 2.019531 11.117188 2.058594 11.898438 2.117188 12.675781 C 2.175781 13.457031 2.257812 14.234375 2.363281 15.007812 C 2.464844 15.785156 2.589844 16.554688 2.734375 17.324219 C 2.878906 18.09375 3.046875 18.855469 3.234375 19.617188 C 3.421875 20.375 3.628906 21.128906 3.859375 21.875 C 4.089844 22.621094 4.339844 23.363281 4.609375 24.097656 C 4.878906 24.832031 5.167969 25.554688 5.480469 26.273438 C 5.789062 26.992188 6.117188 27.699219 6.46875 28.398438 C 6.816406 29.097656 7.183594 29.785156 7.574219 30.464844 C 7.960938 31.144531 8.367188 31.8125 8.789062 32.46875 C 9.214844 33.125 9.65625 33.769531 10.113281 34.398438 C 10.574219 35.03125 11.050781 35.652344 11.542969 36.257812 C 12.039062 36.859375 12.546875 37.453125 13.074219 38.03125 C 13.601562 38.605469 14.140625 39.167969 14.699219 39.714844 C 15.257812 40.261719 15.828125 40.792969 16.414062 41.308594 C 17 41.824219 17.601562 42.324219 18.214844 42.804688 C 18.828125 43.285156 19.457031 43.75 20.097656 44.199219 C 20.734375 44.644531 21.386719 45.074219 22.050781 45.484375 C 22.714844 45.894531 23.386719 46.289062 24.074219 46.664062 C 24.757812 47.035156 25.453125 47.390625 26.15625 47.726562 C 26.863281 48.058594 27.574219 48.375 28.296875 48.671875 C 29.019531 48.964844 29.75 49.242188 30.484375 49.496094 C 31.222656 49.75 31.964844 49.984375 32.714844 50.199219 C 33.464844 50.414062 34.222656 50.605469 34.980469 50.777344 C 35.742188 50.949219 36.507812 51.101562 37.277344 51.230469 C 38.046875 51.359375 38.816406 51.46875 39.59375 51.554688 C 40.367188 51.640625 41.144531 51.707031 41.921875 51.75 C 42.699219 51.792969 43.480469 51.8125 44.257812 51.8125 L 158.304688 51.8125 C 159.085938 51.8125 159.863281 51.792969 160.644531 51.75 C 161.421875 51.707031 162.199219 51.640625 162.972656 51.554688 C 163.75 51.46875 164.519531 51.359375 165.289062 51.230469 C 166.058594 51.101562 166.824219 50.949219 167.582031 50.777344 C 168.34375 50.605469 169.101562 50.414062 169.851562 50.199219 C 170.601562 49.988281 171.34375 49.753906 172.082031 49.496094 C 172.816406 49.242188 173.546875 48.96875 174.269531 48.671875 C 174.992188 48.375 175.703125 48.0625 176.410156 47.726562 C 177.113281 47.390625 177.808594 47.035156 178.492188 46.664062 C 179.179688 46.289062 179.851562 45.898438 180.515625 45.484375 C 181.179688 45.074219 181.832031 44.644531 182.46875 44.199219 C 183.109375 43.75 183.738281 43.289062 184.351562 42.804688 C 184.964844 42.324219 185.566406 41.824219 186.152344 41.308594 C 186.738281 40.792969 187.308594 40.261719 187.867188 39.714844 C 188.425781 39.167969 188.964844 38.605469 189.492188 38.03125 C 190.019531 37.453125 190.527344 36.863281 191.023438 36.257812 C 191.515625 35.652344 191.992188 35.03125 192.453125 34.402344 C 192.910156 33.769531 193.355469 33.125 193.777344 32.46875 C 194.203125 31.8125 194.609375 31.144531 194.996094 30.464844 C 195.382812 29.789062 195.75 29.097656 196.097656 28.398438 C 196.449219 27.699219 196.777344 26.992188 197.089844 26.273438 C 197.398438 25.554688 197.6875 24.832031 197.957031 24.097656 C 198.230469 23.363281 198.476562 22.621094 198.707031 21.875 C 198.9375 21.128906 199.144531 20.375 199.332031 19.617188 C 199.519531 18.855469 199.6875 18.09375 199.832031 17.324219 C 199.976562 16.554688 200.101562 15.785156 200.207031 15.007812 C 200.308594 14.234375 200.390625 13.457031 200.449219 12.675781 C 200.511719 11.898438 200.550781 11.117188 200.566406 10.335938 C 200.582031 9.554688 200.578125 8.769531 200.550781 7.988281 C 200.527344 7.207031 200.480469 6.425781 200.410156 5.648438 C 200.339844 4.871094 200.25 4.09375 200.136719 3.320312 C 200.027344 2.546875 199.894531 1.773438 199.738281 1.007812 C 199.5 2.195312 199.207031 3.371094 198.867188 4.535156 C 198.527344 5.695312 198.140625 6.84375 197.699219 7.972656 C 197.261719 9.101562 196.777344 10.210938 196.242188 11.296875 C 195.710938 12.382812 195.132812 13.445312 194.507812 14.484375 C 193.882812 15.523438 193.21875 16.53125 192.507812 17.511719 C 191.796875 18.492188 191.046875 19.441406 190.253906 20.355469 C 189.464844 21.269531 188.636719 22.152344 187.769531 22.996094 C 186.902344 23.839844 186 24.644531 185.066406 25.414062 C 184.132812 26.179688 183.164062 26.90625 182.167969 27.589844 C 181.171875 28.273438 180.144531 28.914062 179.09375 29.507812 C 178.042969 30.105469 176.964844 30.65625 175.867188 31.160156 C 174.769531 31.660156 173.648438 32.117188 172.511719 32.523438 C 171.375 32.929688 170.222656 33.289062 169.054688 33.597656 C 167.882812 33.90625 166.707031 34.164062 165.515625 34.367188 C 164.324219 34.574219 163.128906 34.730469 161.921875 34.835938 C 160.71875 34.9375 159.515625 34.988281 158.304688 34.988281 Z M 158.304688 34.988281 " fill-opacity="1" fill-rule="nonzero"/></g></g></g></g><path fill="#f5f5f5" d="M 240.058594 197.195312 C 240.058594 197.679688 240.011719 198.164062 239.917969 198.640625 C 239.820312 199.117188 239.683594 199.578125 239.496094 200.027344 C 239.3125 200.476562 239.082031 200.902344 238.8125 201.308594 C 238.542969 201.710938 238.238281 202.085938 237.894531 202.429688 C 237.554688 202.773438 237.179688 203.082031 236.777344 203.351562 C 236.375 203.621094 235.949219 203.851562 235.5 204.035156 C 235.054688 204.222656 234.59375 204.363281 234.117188 204.457031 C 233.640625 204.554688 233.160156 204.601562 232.675781 204.601562 L 162.234375 204.601562 C 161.75 204.601562 161.269531 204.554688 160.792969 204.457031 C 160.316406 204.363281 159.855469 204.222656 159.40625 204.035156 C 158.960938 203.851562 158.535156 203.621094 158.132812 203.351562 C 157.730469 203.082031 157.355469 202.773438 157.011719 202.429688 C 156.671875 202.085938 156.363281 201.714844 156.09375 201.308594 C 155.828125 200.90625 155.597656 200.476562 155.414062 200.027344 C 155.226562 199.578125 155.089844 199.117188 154.992188 198.640625 C 154.898438 198.164062 154.851562 197.679688 154.851562 197.195312 C 154.851562 196.707031 154.898438 196.226562 154.996094 195.75 C 155.089844 195.273438 155.230469 194.8125 155.414062 194.363281 C 155.601562 193.914062 155.828125 193.488281 156.097656 193.085938 C 156.367188 192.679688 156.675781 192.308594 157.015625 191.964844 C 157.359375 191.621094 157.730469 191.3125 158.132812 191.042969 C 158.539062 190.773438 158.960938 190.546875 159.410156 190.359375 C 159.859375 190.175781 160.320312 190.035156 160.792969 189.9375 C 161.269531 189.84375 161.75 189.796875 162.234375 189.796875 L 232.675781 189.796875 C 233.160156 189.796875 233.640625 189.84375 234.117188 189.9375 C 234.589844 190.035156 235.054688 190.175781 235.5 190.359375 C 235.949219 190.546875 236.375 190.773438 236.777344 191.042969 C 237.179688 191.316406 237.550781 191.621094 237.894531 191.964844 C 238.238281 192.308594 238.542969 192.683594 238.8125 193.085938 C 239.082031 193.492188 239.308594 193.917969 239.496094 194.367188 C 239.679688 194.816406 239.820312 195.277344 239.914062 195.753906 C 240.011719 196.230469 240.058594 196.710938 240.058594 197.199219 Z M 240.058594 197.195312 " fill-opacity="1" fill-rule="nonzero"/><path fill="#f5f5f5" d="M 229.527344 135.121094 C 230.285156 136.28125 230.988281 137.476562 231.632812 138.707031 C 232.273438 139.933594 232.855469 141.195312 233.375 142.480469 C 233.894531 143.765625 234.351562 145.078125 234.742188 146.410156 C 235.132812 147.742188 235.457031 149.089844 235.71875 150.453125 C 235.976562 151.816406 236.167969 153.191406 236.292969 154.574219 C 236.417969 155.957031 236.476562 157.339844 236.464844 158.730469 C 236.453125 160.117188 236.375 161.503906 236.226562 162.882812 C 236.082031 164.265625 235.867188 165.632812 235.585938 166.992188 C 235.304688 168.355469 234.960938 169.695312 234.546875 171.023438 C 234.132812 172.347656 233.660156 173.648438 233.117188 174.925781 C 232.578125 176.207031 231.976562 177.457031 231.316406 178.675781 C 230.652344 179.894531 229.933594 181.078125 229.15625 182.226562 C 228.375 183.375 227.542969 184.480469 226.65625 185.546875 C 225.769531 186.613281 224.832031 187.632812 223.847656 188.609375 C 222.859375 189.582031 221.828125 190.503906 220.75 191.378906 C 219.675781 192.25 218.558594 193.066406 217.398438 193.828125 L 122.074219 256.625 C 120.917969 257.386719 119.726562 258.089844 118.5 258.734375 C 117.273438 259.378906 116.019531 259.960938 114.738281 260.484375 C 113.453125 261.003906 112.148438 261.460938 110.820312 261.855469 C 109.492188 262.246094 108.148438 262.574219 106.789062 262.832031 C 105.429688 263.09375 104.058594 263.285156 102.679688 263.410156 C 101.300781 263.535156 99.921875 263.59375 98.535156 263.582031 C 97.152344 263.570312 95.773438 263.492188 94.394531 263.34375 C 93.019531 263.199219 91.652344 262.984375 90.296875 262.703125 C 88.941406 262.421875 87.601562 262.074219 86.28125 261.660156 C 84.960938 261.246094 83.660156 260.769531 82.386719 260.226562 C 81.113281 259.683594 79.867188 259.082031 78.652344 258.417969 C 77.4375 257.753906 76.253906 257.03125 75.109375 256.25 C 73.964844 255.46875 72.863281 254.636719 71.796875 253.746094 C 70.734375 252.855469 69.71875 251.917969 68.746094 250.929688 C 67.777344 249.9375 66.855469 248.902344 65.984375 247.824219 C 65.117188 246.742188 64.300781 245.621094 63.542969 244.460938 C 62.78125 243.300781 62.082031 242.105469 61.4375 240.875 C 60.796875 239.648438 60.214844 238.386719 59.695312 237.101562 C 59.175781 235.8125 58.71875 234.503906 58.328125 233.171875 C 57.9375 231.839844 57.613281 230.492188 57.351562 229.128906 C 57.09375 227.765625 56.902344 226.390625 56.777344 225.007812 C 56.652344 223.628906 56.597656 222.242188 56.605469 220.851562 C 56.617188 219.464844 56.695312 218.082031 56.84375 216.699219 C 56.988281 215.320312 57.203125 213.949219 57.484375 212.589844 C 57.765625 211.230469 58.113281 209.886719 58.523438 208.5625 C 58.9375 207.238281 59.414062 205.933594 59.953125 204.65625 C 60.492188 203.378906 61.09375 202.128906 61.757812 200.910156 C 62.417969 199.691406 63.136719 198.507812 63.917969 197.359375 C 64.695312 196.210938 65.527344 195.101562 66.414062 194.035156 C 67.300781 192.96875 68.238281 191.949219 69.222656 190.976562 C 70.210938 190.003906 71.242188 189.078125 72.320312 188.207031 C 73.394531 187.335938 74.511719 186.519531 75.671875 185.753906 L 170.996094 122.96875 C 172.152344 122.207031 173.34375 121.503906 174.570312 120.859375 C 175.796875 120.214844 177.050781 119.628906 178.332031 119.109375 C 179.617188 118.585938 180.921875 118.128906 182.25 117.738281 C 183.578125 117.34375 184.921875 117.019531 186.28125 116.757812 C 187.640625 116.5 189.007812 116.304688 190.386719 116.179688 C 191.765625 116.054688 193.148438 115.996094 194.53125 116.007812 C 195.917969 116.019531 197.296875 116.097656 198.671875 116.246094 C 200.050781 116.390625 201.414062 116.605469 202.769531 116.886719 C 204.125 117.167969 205.464844 117.515625 206.785156 117.929688 C 208.109375 118.34375 209.40625 118.820312 210.679688 119.359375 C 211.953125 119.902344 213.199219 120.503906 214.414062 121.167969 C 215.632812 121.832031 216.8125 122.554688 217.957031 123.335938 C 219.101562 124.113281 220.207031 124.949219 221.269531 125.839844 C 222.332031 126.726562 223.347656 127.667969 224.320312 128.65625 C 225.292969 129.644531 226.210938 130.679688 227.082031 131.757812 C 227.953125 132.839844 228.765625 133.960938 229.527344 135.121094 Z M 229.527344 135.121094 " fill-opacity="1" fill-rule="nonzero"/><g mask="url(#id8)"><g transform="matrix(1, 0, 0, 1, 56, 115)"><g clip-path="url(#id10)"><g clip-path="url(#id9)"><path fill="#737373" d="M 173.527344 20.121094 C 174.285156 21.28125 174.988281 22.476562 175.632812 23.707031 C 176.273438 24.933594 176.855469 26.195312 177.375 27.480469 C 177.894531 28.765625 178.351562 30.078125 178.742188 31.410156 C 179.132812 32.742188 179.457031 34.089844 179.71875 35.453125 C 179.976562 36.816406 180.167969 38.191406 180.292969 39.574219 C 180.417969 40.957031 180.476562 42.339844 180.464844 43.730469 C 180.453125 45.117188 180.375 46.503906 180.226562 47.882812 C 180.082031 49.265625 179.867188 50.632812 179.585938 51.992188 C 179.304688 53.355469 178.960938 54.695312 178.546875 56.023438 C 178.132812 57.347656 177.660156 58.648438 177.117188 59.925781 C 176.578125 61.207031 175.976562 62.457031 175.316406 63.675781 C 174.652344 64.894531 173.933594 66.078125 173.15625 67.226562 C 172.375 68.375 171.542969 69.480469 170.65625 70.546875 C 169.769531 71.613281 168.832031 72.632812 167.847656 73.609375 C 166.859375 74.582031 165.828125 75.503906 164.75 76.378906 C 163.675781 77.25 162.558594 78.066406 161.398438 78.828125 L 66.074219 141.625 C 64.917969 142.386719 63.726562 143.089844 62.5 143.734375 C 61.273438 144.378906 60.019531 144.960938 58.738281 145.484375 C 57.453125 146.003906 56.148438 146.460938 54.820312 146.855469 C 53.492188 147.246094 52.148438 147.574219 50.789062 147.832031 C 49.429688 148.09375 48.058594 148.285156 46.679688 148.410156 C 45.300781 148.535156 43.921875 148.59375 42.535156 148.582031 C 41.152344 148.570312 39.773438 148.492188 38.394531 148.34375 C 37.019531 148.199219 35.652344 147.984375 34.296875 147.703125 C 32.941406 147.421875 31.601562 147.074219 30.28125 146.660156 C 28.960938 146.246094 27.660156 145.769531 26.386719 145.226562 C 25.113281 144.683594 23.867188 144.082031 22.652344 143.417969 C 21.4375 142.753906 20.253906 142.03125 19.109375 141.25 C 17.964844 140.46875 16.863281 139.636719 15.796875 138.746094 C 14.734375 137.855469 13.71875 136.917969 12.746094 135.929688 C 11.777344 134.9375 10.855469 133.902344 9.984375 132.824219 C 9.117188 131.742188 8.300781 130.621094 7.542969 129.460938 C 6.78125 128.300781 6.082031 127.105469 5.4375 125.875 C 4.796875 124.648438 4.214844 123.386719 3.695312 122.101562 C 3.175781 120.8125 2.71875 119.503906 2.328125 118.171875 C 1.9375 116.839844 1.613281 115.492188 1.351562 114.128906 C 1.09375 112.765625 0.902344 111.390625 0.777344 110.007812 C 0.652344 108.628906 0.597656 107.242188 0.605469 105.851562 C 0.617188 104.464844 0.695312 103.082031 0.84375 101.699219 C 0.988281 100.320312 1.203125 98.949219 1.484375 97.589844 C 1.765625 96.230469 2.113281 94.886719 2.523438 93.5625 C 2.9375 92.238281 3.414062 90.933594 3.953125 89.65625 C 4.492188 88.378906 5.09375 87.128906 5.757812 85.910156 C 6.417969 84.691406 7.136719 83.507812 7.917969 82.359375 C 8.695312 81.210938 9.527344 80.101562 10.414062 79.035156 C 11.300781 77.96875 12.238281 76.949219 13.222656 75.976562 C 14.210938 75.003906 15.242188 74.078125 16.320312 73.207031 C 17.394531 72.335938 18.511719 71.519531 19.671875 70.753906 L 114.996094 7.96875 C 116.152344 7.207031 117.34375 6.503906 118.570312 5.859375 C 119.796875 5.214844 121.050781 4.628906 122.332031 4.109375 C 123.617188 3.585938 124.921875 3.128906 126.25 2.738281 C 127.578125 2.34375 128.921875 2.019531 130.28125 1.757812 C 131.640625 1.5 133.007812 1.304688 134.386719 1.179688 C 135.765625 1.054688 137.148438 0.996094 138.53125 1.007812 C 139.917969 1.019531 141.296875 1.097656 142.671875 1.246094 C 144.050781 1.390625 145.414062 1.605469 146.769531 1.886719 C 148.125 2.167969 149.464844 2.515625 150.785156 2.929688 C 152.109375 3.34375 153.40625 3.820312 154.679688 4.359375 C 155.953125 4.902344 157.199219 5.503906 158.414062 6.167969 C 159.632812 6.832031 160.8125 7.554688 161.957031 8.335938 C 163.101562 9.113281 164.207031 9.949219 165.269531 10.839844 C 166.332031 11.726562 167.347656 12.667969 168.320312 13.65625 C 169.292969 14.644531 170.210938 15.679688 171.082031 16.757812 C 171.953125 17.839844 172.765625 18.960938 173.527344 20.121094 Z M 173.527344 20.121094 " fill-opacity="1" fill-rule="nonzero"/></g></g></g></g><path fill="#ff1616" d="M 123.335938 154.355469 L 170.996094 122.96875 C 172.152344 122.207031 173.34375 121.503906 174.570312 120.859375 C 175.796875 120.214844 177.050781 119.628906 178.332031 119.109375 C 179.617188 118.585938 180.921875 118.128906 182.25 117.738281 C 183.578125 117.34375 184.921875 117.019531 186.28125 116.757812 C 187.640625 116.5 189.007812 116.304688 190.386719 116.179688 C 191.765625 116.054688 193.148438 115.996094 194.53125 116.007812 C 195.917969 116.019531 197.296875 116.097656 198.671875 116.246094 C 200.050781 116.390625 201.414062 116.605469 202.769531 116.886719 C 204.125 117.167969 205.464844 117.515625 206.785156 117.929688 C 208.109375 118.34375 209.40625 118.820312 210.679688 119.359375 C 211.953125 119.902344 213.199219 120.503906 214.414062 121.167969 C 215.632812 121.832031 216.8125 122.554688 217.957031 123.335938 C 219.101562 124.113281 220.207031 124.949219 221.269531 125.839844 C 222.332031 126.726562 223.347656 127.667969 224.320312 128.65625 C 225.292969 129.644531 226.210938 130.679688 227.082031 131.757812 C 227.953125 132.839844 228.765625 133.960938 229.527344 135.121094 C 230.285156 136.28125 230.988281 137.476562 231.632812 138.707031 C 232.273438 139.933594 232.855469 141.195312 233.375 142.480469 C 233.894531 143.765625 234.351562 145.078125 234.742188 146.410156 C 235.132812 147.742188 235.457031 149.089844 235.71875 150.453125 C 235.976562 151.816406 236.167969 153.191406 236.292969 154.574219 C 236.417969 155.957031 236.476562 157.339844 236.464844 158.730469 C 236.453125 160.117188 236.375 161.503906 236.226562 162.882812 C 236.082031 164.265625 235.867188 165.632812 235.585938 166.992188 C 235.304688 168.355469 234.960938 169.695312 234.546875 171.023438 C 234.132812 172.347656 233.660156 173.648438 233.117188 174.925781 C 232.578125 176.207031 231.976562 177.457031 231.316406 178.675781 C 230.652344 179.894531 229.933594 181.078125 229.15625 182.226562 C 228.375 183.375 227.542969 184.480469 226.65625 185.546875 C 225.769531 186.613281 224.832031 187.632812 223.847656 188.609375 C 222.859375 189.582031 221.828125 190.503906 220.75 191.378906 C 219.675781 192.25 218.558594 193.066406 217.398438 193.828125 L 169.742188 225.226562 Z M 123.335938 154.355469 " fill-opacity="1" fill-rule="nonzero"/><g mask="url(#id11)"><g transform="matrix(1, 0, 0, 1, 58, 127)"><g clip-path="url(#id12)"><path fill="#737373" d="M 150.195312 52.761719 L 54.867188 115.5625 C 53.859375 116.226562 52.820312 116.847656 51.757812 117.425781 C 50.695312 118 49.609375 118.53125 48.503906 119.011719 C 47.394531 119.496094 46.265625 119.929688 45.121094 120.316406 C 43.976562 120.703125 42.816406 121.039062 41.644531 121.324219 C 40.46875 121.609375 39.285156 121.847656 38.089844 122.03125 C 36.894531 122.214844 35.695312 122.347656 34.492188 122.429688 C 33.285156 122.511719 32.078125 122.539062 30.871094 122.515625 C 29.664062 122.496094 28.457031 122.421875 27.257812 122.292969 C 26.054688 122.167969 24.859375 121.988281 23.675781 121.761719 C 22.488281 121.53125 21.3125 121.253906 20.152344 120.921875 C 18.988281 120.59375 17.839844 120.214844 16.710938 119.785156 C 15.582031 119.355469 14.472656 118.878906 13.382812 118.355469 C 12.292969 117.832031 11.226562 117.261719 10.1875 116.648438 C 9.144531 116.03125 8.132812 115.371094 7.148438 114.671875 C 6.164062 113.96875 5.210938 113.222656 4.289062 112.4375 C 3.371094 111.65625 2.484375 110.832031 1.632812 109.972656 C 1.925781 110.695312 2.234375 111.414062 2.566406 112.121094 C 2.894531 112.832031 3.242188 113.53125 3.613281 114.21875 C 3.980469 114.910156 4.367188 115.585938 4.773438 116.253906 C 5.179688 116.921875 5.605469 117.578125 6.046875 118.222656 C 6.488281 118.867188 6.949219 119.5 7.425781 120.117188 C 7.902344 120.734375 8.394531 121.339844 8.90625 121.933594 C 9.417969 122.523438 9.941406 123.101562 10.484375 123.664062 C 11.027344 124.222656 11.585938 124.769531 12.15625 125.300781 C 12.730469 125.832031 13.316406 126.347656 13.917969 126.847656 C 14.519531 127.34375 15.132812 127.828125 15.757812 128.292969 C 16.386719 128.757812 17.027344 129.203125 17.679688 129.632812 C 18.328125 130.0625 18.992188 130.472656 19.667969 130.863281 C 20.34375 131.253906 21.027344 131.628906 21.722656 131.984375 C 22.417969 132.335938 23.121094 132.671875 23.835938 132.988281 C 24.550781 133.300781 25.269531 133.597656 26 133.871094 C 26.730469 134.148438 27.46875 134.402344 28.210938 134.636719 C 28.957031 134.871094 29.707031 135.082031 30.460938 135.277344 C 31.21875 135.46875 31.976562 135.640625 32.742188 135.789062 C 33.507812 135.941406 34.277344 136.070312 35.050781 136.175781 C 35.820312 136.285156 36.597656 136.371094 37.375 136.4375 C 38.152344 136.5 38.929688 136.542969 39.707031 136.566406 C 40.488281 136.585938 41.269531 136.585938 42.046875 136.566406 C 42.828125 136.542969 43.605469 136.5 44.382812 136.433594 C 45.160156 136.371094 45.933594 136.285156 46.707031 136.175781 C 47.476562 136.066406 48.246094 135.9375 49.011719 135.789062 C 49.777344 135.636719 50.539062 135.464844 51.292969 135.273438 C 52.050781 135.078125 52.800781 134.867188 53.542969 134.632812 C 54.285156 134.398438 55.023438 134.140625 55.753906 133.867188 C 56.484375 133.589844 57.207031 133.296875 57.917969 132.980469 C 58.632812 132.664062 59.335938 132.332031 60.03125 131.976562 C 60.726562 131.621094 61.410156 131.25 62.085938 130.855469 C 62.761719 130.464844 63.421875 130.050781 64.074219 129.625 L 159.402344 66.828125 C 160.054688 66.398438 160.691406 65.953125 161.320312 65.488281 C 161.945312 65.023438 162.558594 64.539062 163.160156 64.042969 C 163.761719 63.542969 164.347656 63.027344 164.917969 62.496094 C 165.492188 61.964844 166.046875 61.417969 166.589844 60.855469 C 167.132812 60.292969 167.65625 59.714844 168.167969 59.125 C 168.675781 58.53125 169.167969 57.925781 169.644531 57.308594 C 170.121094 56.6875 170.582031 56.058594 171.023438 55.414062 C 171.464844 54.769531 171.890625 54.113281 172.292969 53.445312 C 172.699219 52.777344 173.085938 52.097656 173.453125 51.410156 C 173.824219 50.71875 174.171875 50.019531 174.5 49.3125 C 174.832031 48.601562 175.140625 47.886719 175.429688 47.160156 C 175.71875 46.433594 175.988281 45.699219 176.238281 44.957031 C 176.488281 44.21875 176.71875 43.46875 176.925781 42.71875 C 177.132812 41.964844 177.320312 41.203125 177.488281 40.441406 C 177.65625 39.675781 177.800781 38.910156 177.925781 38.136719 C 178.046875 37.363281 178.152344 36.589844 178.230469 35.8125 C 178.3125 35.035156 178.371094 34.253906 178.410156 33.472656 C 178.449219 32.691406 178.464844 31.910156 178.460938 31.128906 C 178.457031 30.347656 178.429688 29.566406 178.382812 28.785156 C 178.335938 28.003906 178.265625 27.226562 178.175781 26.449219 C 178.082031 25.671875 177.972656 24.898438 177.839844 24.128906 C 177.703125 23.359375 177.550781 22.589844 177.375 21.828125 C 177.199219 21.066406 177 20.3125 176.785156 19.558594 C 176.566406 18.808594 176.328125 18.066406 176.070312 17.328125 C 175.8125 16.589844 175.53125 15.859375 175.234375 15.136719 C 174.933594 14.414062 174.617188 13.703125 174.277344 12.996094 C 173.941406 12.292969 173.582031 11.597656 173.207031 10.914062 C 172.828125 10.226562 172.433594 9.554688 172.019531 8.890625 C 171.609375 8.226562 171.175781 7.578125 170.726562 6.9375 C 170.277344 6.300781 169.808594 5.671875 169.324219 5.058594 C 168.84375 4.445312 168.339844 3.847656 167.824219 3.261719 C 167.308594 2.675781 166.773438 2.105469 166.226562 1.550781 C 166.675781 2.675781 167.074219 3.816406 167.425781 4.976562 C 167.777344 6.136719 168.082031 7.308594 168.332031 8.492188 C 168.585938 9.679688 168.785156 10.871094 168.933594 12.074219 C 169.085938 13.277344 169.183594 14.484375 169.230469 15.695312 C 169.273438 16.90625 169.269531 18.113281 169.210938 19.324219 C 169.15625 20.535156 169.046875 21.742188 168.886719 22.941406 C 168.726562 24.144531 168.515625 25.335938 168.253906 26.519531 C 167.992188 27.699219 167.679688 28.871094 167.320312 30.027344 C 166.957031 31.183594 166.546875 32.320312 166.085938 33.441406 C 165.628906 34.5625 165.121094 35.660156 164.570312 36.738281 C 164.015625 37.816406 163.417969 38.867188 162.773438 39.890625 C 162.132812 40.917969 161.445312 41.914062 160.71875 42.878906 C 159.988281 43.847656 159.222656 44.78125 158.414062 45.683594 C 157.605469 46.582031 156.761719 47.445312 155.878906 48.273438 C 154.996094 49.101562 154.082031 49.890625 153.132812 50.640625 C 152.183594 51.390625 151.203125 52.097656 150.195312 52.761719 Z M 150.195312 52.761719 " fill-opacity="1" fill-rule="nonzero"/></g></g></g><path fill="#f5f5f5" d="M 147.300781 160.308594 C 147.566406 160.714844 147.792969 161.140625 147.972656 161.59375 C 148.15625 162.042969 148.292969 162.507812 148.382812 162.984375 C 148.472656 163.460938 148.515625 163.945312 148.515625 164.429688 C 148.511719 164.917969 148.457031 165.398438 148.359375 165.875 C 148.261719 166.351562 148.117188 166.8125 147.929688 167.261719 C 147.742188 167.707031 147.511719 168.132812 147.238281 168.535156 C 146.964844 168.9375 146.65625 169.308594 146.3125 169.648438 C 145.964844 169.992188 145.589844 170.296875 145.183594 170.5625 L 86.304688 209.351562 C 85.898438 209.617188 85.472656 209.84375 85.019531 210.023438 C 84.570312 210.207031 84.109375 210.34375 83.632812 210.433594 C 83.15625 210.527344 82.675781 210.570312 82.191406 210.566406 C 81.707031 210.5625 81.226562 210.507812 80.753906 210.410156 C 80.277344 210.3125 79.816406 210.167969 79.371094 209.976562 C 78.925781 209.789062 78.5 209.558594 78.097656 209.285156 C 77.699219 209.011719 77.328125 208.699219 76.988281 208.351562 C 76.648438 208.007812 76.34375 207.628906 76.078125 207.222656 C 75.8125 206.816406 75.589844 206.390625 75.40625 205.9375 C 75.226562 205.488281 75.089844 205.023438 75 204.546875 C 74.910156 204.070312 74.867188 203.585938 74.871094 203.101562 C 74.875 202.617188 74.925781 202.132812 75.023438 201.660156 C 75.121094 201.183594 75.265625 200.722656 75.453125 200.273438 C 75.644531 199.824219 75.875 199.402344 76.144531 199 C 76.417969 198.597656 76.726562 198.226562 77.074219 197.886719 C 77.417969 197.542969 77.792969 197.242188 78.199219 196.972656 L 137.078125 158.1875 C 137.484375 157.917969 137.910156 157.695312 138.359375 157.511719 C 138.808594 157.328125 139.269531 157.191406 139.746094 157.101562 C 140.222656 157.011719 140.703125 156.96875 141.1875 156.972656 C 141.671875 156.976562 142.152344 157.027344 142.628906 157.125 C 143.101562 157.222656 143.5625 157.367188 144.007812 157.554688 C 144.457031 157.746094 144.878906 157.976562 145.28125 158.25 C 145.679688 158.523438 146.050781 158.832031 146.390625 159.179688 C 146.734375 159.523438 147.035156 159.902344 147.300781 160.308594 Z M 147.300781 160.308594 " fill-opacity="1" fill-rule="nonzero"/></svg>